<svg xmlns="http://www.w3.org/2000/svg" viewBox="0 0 160 50" width="100%" height="100%">
    <g transform="translate(4, 5)">
      <!-- Fox head silhouette -->
      <path d="M 5,20 C 15,10 25,5 35,5 C 32,12 28,18 20,22 C 28,24 35,28 40,35 C 30,35 20,30 15,25 L 8,30 C 5,25 3,22 5,20 Z" fill="#F05A28" />
      <path d="M 28,5 C 32,8 35,15 35,22 C 42,22 48,15 50,10 C 45,5 35,3 28,5 Z" fill="#F05A28" />
      <circle cx="20" cy="12" r="1.5" fill="#ffffff" />
    </g>
    <text x="60" y="35" font-family="'Arial Black', 'Impact', sans-serif" font-size="23" font-weight="bold" font-style="italic" fill="#FF5722" letter-spacing="1">FOXIN</text>
  </svg>